<svg width="415" height="148" viewBox="0 0 415 148" fill="none" xmlns="http://www.w3.org/2000/svg">
<path d="M232.952 49.355L231.089 60.119H211.631L210.113 68.675H224.396L222.602 78.956H208.319L204.938 98H191.345L199.97 49.355H232.952ZM248.032 98.483C244.674 98.483 241.684 97.816 239.062 96.482C236.486 95.148 234.485 93.262 233.059 90.824C231.633 88.386 230.92 85.534 230.92 82.268C230.92 77.852 231.955 73.85 234.025 70.262C236.141 66.674 239.039 63.868 242.719 61.844C246.399 59.82 250.516 58.808 255.07 58.808C258.428 58.808 261.395 59.475 263.971 60.809C266.593 62.143 268.617 64.052 270.043 66.536C271.515 68.974 272.251 71.826 272.251 75.092C272.251 79.554 271.193 83.579 269.077 87.167C266.961 90.709 264.063 93.492 260.383 95.516C256.703 97.494 252.586 98.483 248.032 98.483ZM250.102 86.822C251.712 86.822 253.138 86.316 254.38 85.304C255.668 84.292 256.634 82.981 257.278 81.371C257.968 79.761 258.313 78.105 258.313 76.403C258.313 74.471 257.807 72.999 256.795 71.987C255.829 70.975 254.564 70.469 253 70.469C251.344 70.469 249.895 70.975 248.653 71.987C247.457 72.999 246.514 74.31 245.824 75.92C245.18 77.53 244.858 79.209 244.858 80.957C244.858 82.889 245.341 84.361 246.307 85.373C247.273 86.339 248.538 86.822 250.102 86.822ZM293.071 66.329C294.957 64.075 297.096 62.281 299.488 60.947C301.88 59.613 304.318 58.946 306.802 58.946L304.318 73.367H300.523C297.671 73.367 295.44 73.896 293.83 74.954C292.22 76.012 291.139 77.852 290.587 80.474L287.482 98H273.889L280.789 59.291H294.313L293.071 66.329ZM362.227 58.946C366.413 58.946 369.633 60.05 371.887 62.258C374.187 64.466 375.337 67.525 375.337 71.435C375.337 72.953 375.222 74.287 374.992 75.437L370.99 98H357.535L361.192 77.231C361.284 76.495 361.33 75.989 361.33 75.713C361.33 74.103 360.847 72.861 359.881 71.987C358.961 71.113 357.65 70.676 355.948 70.676C354.108 70.676 352.521 71.182 351.187 72.194C349.899 73.16 349.025 74.54 348.565 76.334L344.701 98H331.177L334.834 77.231C334.926 76.863 334.972 76.311 334.972 75.575C334.972 74.011 334.489 72.815 333.523 71.987C332.603 71.113 331.315 70.676 329.659 70.676C327.727 70.676 326.094 71.228 324.76 72.332C323.426 73.39 322.529 74.908 322.069 76.886L318.343 98H304.75L311.65 59.291H325.174L324.277 64.328C325.703 62.672 327.451 61.361 329.521 60.395C331.637 59.429 333.96 58.946 336.49 58.946C339.342 58.946 341.757 59.567 343.735 60.809C345.759 62.051 347.208 63.799 348.082 66.053C349.83 63.937 351.946 62.235 354.43 60.947C356.914 59.613 359.513 58.946 362.227 58.946ZM395.305 98.483C392.085 98.483 389.21 98 386.68 97.034C384.15 96.068 382.172 94.711 380.746 92.963C379.32 91.169 378.607 89.122 378.607 86.822C378.607 86.408 378.653 85.787 378.745 84.959H391.786C391.74 86.247 392.131 87.236 392.959 87.926C393.787 88.616 394.937 88.961 396.409 88.961C397.559 88.961 398.502 88.731 399.238 88.271C400.02 87.811 400.411 87.213 400.411 86.477C400.411 85.603 399.928 84.936 398.962 84.476C397.996 83.97 396.386 83.349 394.132 82.613C391.51 81.785 389.348 80.98 387.646 80.198C385.944 79.416 384.449 78.266 383.161 76.748C381.919 75.23 381.298 73.275 381.298 70.883C381.298 68.583 381.965 66.513 383.299 64.673C384.679 62.833 386.611 61.407 389.095 60.395C391.579 59.337 394.454 58.808 397.72 58.808C401.216 58.808 404.229 59.406 406.759 60.602C409.335 61.752 411.244 63.362 412.486 65.432C413.774 67.502 414.349 69.802 414.211 72.332H402.067C402.113 71.09 401.745 70.124 400.963 69.434C400.181 68.698 399.054 68.33 397.582 68.33C396.524 68.33 395.65 68.56 394.96 69.02C394.27 69.48 393.925 70.078 393.925 70.814C393.925 71.688 394.408 72.378 395.374 72.884C396.386 73.39 398.065 74.034 400.411 74.816C402.987 75.644 405.126 76.472 406.828 77.3C408.576 78.082 410.071 79.209 411.313 80.681C412.555 82.107 413.176 83.947 413.176 86.201C413.176 90.019 411.52 93.032 408.208 95.24C404.896 97.402 400.595 98.483 395.305 98.483Z" fill="#583BD1"/>
<path d="M35.3929 94.884C33.7885 93.1297 32.8431 90.8929 32.7129 88.5424V59.2304C32.8427 56.8795 33.7881 54.6424 35.3929 52.8885L37.5124 50.8143C38.2231 50.1174 38.6223 49.1731 38.6223 48.1884C38.6223 47.2038 38.2231 46.2594 37.5124 45.5626L15.0306 23.5582C14.3177 22.8633 13.3525 22.4732 12.3463 22.4732C11.3401 22.4732 10.375 22.8633 9.66206 23.5582L1.10436 31.9331C0.396901 32.6317 0 33.5754 0 34.559C0 35.5425 0.396901 36.4863 1.10436 37.1849L17.15 52.8878C18.7577 54.6402 19.7043 56.8781 19.8329 59.2297V88.5417C19.7047 90.8922 18.7579 93.1283 17.15 94.8792L1.10436 110.588C0.396901 111.287 0 112.231 0 113.214C0 114.197 0.396901 115.141 1.10436 115.84L9.66206 124.215C10.375 124.909 11.3402 125.299 12.3463 125.299C13.3525 125.299 14.3176 124.909 15.0306 124.215L37.5124 102.209C38.2231 101.511 38.6222 100.567 38.6222 99.583C38.6222 98.598 38.2231 97.6542 37.5124 96.9574L35.3929 94.884Z" fill="#583BD1"/>
<path d="M97.1772 113.362C95.3853 114.932 93.1004 115.858 90.6983 115.988H60.7551C58.3515 115.858 56.0646 114.932 54.2705 113.362L52.156 111.282C51.4406 110.59 50.4752 110.201 49.4693 110.201C48.4633 110.201 47.4979 110.59 46.7825 111.282L24.3036 133.287C23.5939 133.985 23.1955 134.931 23.1955 135.916C23.1955 136.901 23.5939 137.846 24.3036 138.544L32.8613 146.919C33.5758 147.612 34.5407 148 35.5462 148C36.5518 148 37.5167 147.612 38.2312 146.919L54.2733 131.208C56.0669 129.639 58.3532 128.713 60.7558 128.583H90.7076C93.1096 128.713 95.3946 129.638 97.1865 131.208L113.236 146.919C113.95 147.612 114.914 148 115.92 148C116.924 148 117.889 147.612 118.603 146.919L127.16 138.544C127.871 137.846 128.269 136.901 128.269 135.916C128.269 134.931 127.871 133.985 127.16 133.287L104.665 111.281C103.952 110.588 102.987 110.2 101.983 110.2C100.978 110.2 100.013 110.588 99.2995 111.281L97.1772 113.362Z" fill="#583BD1"/>
<path d="M116.598 53.1146C118.206 54.8704 119.154 57.1109 119.285 59.4656V88.7665C119.154 91.1198 118.205 93.3587 116.598 95.1123L114.477 97.1913C113.769 97.8894 113.371 98.8333 113.371 99.8176C113.371 100.801 113.769 101.745 114.477 102.443L136.966 124.445C137.678 125.14 138.644 125.529 139.649 125.529C140.656 125.529 141.62 125.14 142.333 124.445L150.891 116.066C151.601 115.368 152 114.424 152 113.439C152 112.455 151.601 111.51 150.891 110.813L134.849 95.1095C133.24 93.3559 132.291 91.117 132.16 88.7637L132.164 59.4628C132.294 57.1082 133.24 54.8677 134.849 53.1118L150.891 37.4089C151.601 36.7128 152 35.7694 152 34.7858C152 33.8022 151.601 32.8588 150.891 32.1627L142.333 23.7829C141.981 23.438 141.563 23.1643 141.102 22.9776C140.641 22.791 140.148 22.6948 139.649 22.6948C139.151 22.6948 138.658 22.791 138.197 22.9776C137.736 23.1643 137.318 23.438 136.966 23.7829L114.477 45.7838C113.769 46.4818 113.371 47.426 113.371 48.41C113.371 49.3941 113.769 50.3382 114.477 51.0363L116.598 53.1146Z" fill="#583BD1"/>
<path d="M54.8125 34.6375C56.6038 33.0652 58.8901 32.1387 61.2928 32.0113H91.2385C93.6405 32.1409 95.9256 33.0672 97.7182 34.6375L99.8426 36.7159C100.194 37.0607 100.613 37.3343 101.073 37.5209C101.533 37.7075 102.026 37.8037 102.524 37.8037C103.022 37.8037 103.516 37.7075 103.976 37.5209C104.436 37.3343 104.854 37.0607 105.207 36.7159L127.691 14.7101C128.401 14.0115 128.799 13.0664 128.799 12.0814C128.799 11.0964 128.401 10.1514 127.691 9.45273L119.134 1.08762C118.422 0.391195 117.456 0 116.449 0C115.442 0 114.477 0.391195 113.764 1.08762L97.7189 16.7906C95.9263 18.3609 93.6413 19.2871 91.2392 19.4168H61.2928C58.8901 19.2894 56.6038 18.3628 54.8125 16.7906L38.7668 1.08762C38.0523 0.395434 37.0876 0.00715629 36.0822 0.00715629C35.0768 0.00715629 34.1121 0.395434 33.3975 1.08762L24.8399 9.46251C24.1304 10.161 23.7321 11.1059 23.7321 12.0908C23.7321 13.0757 24.1304 14.0206 24.8399 14.7192L47.3195 36.7152C48.0317 37.4116 48.9973 37.8028 50.0041 37.8028C51.0109 37.8028 51.9766 37.4116 52.6888 36.7152L54.8125 34.6375Z" fill="#583BD1"/>
</svg>
