<svg width="152" height="148" viewBox="0 0 152 148" fill="none" xmlns="http://www.w3.org/2000/svg">
<path d="M35.3929 94.884C33.7885 93.1297 32.8431 90.8929 32.7129 88.5424V59.2304C32.8427 56.8795 33.7881 54.6424 35.3929 52.8885L37.5124 50.8143C38.2231 50.1174 38.6223 49.1731 38.6223 48.1884C38.6223 47.2038 38.2231 46.2594 37.5124 45.5626L15.0306 23.5582C14.3177 22.8633 13.3525 22.4732 12.3463 22.4732C11.3401 22.4732 10.375 22.8633 9.66206 23.5582L1.10436 31.9331C0.396901 32.6317 0 33.5754 0 34.559C0 35.5425 0.396901 36.4863 1.10436 37.1849L17.15 52.8878C18.7577 54.6402 19.7043 56.8781 19.8329 59.2297V88.5417C19.7047 90.8922 18.7579 93.1283 17.15 94.8792L1.10436 110.588C0.396901 111.287 0 112.231 0 113.214C0 114.197 0.396901 115.141 1.10436 115.84L9.66206 124.215C10.375 124.909 11.3402 125.299 12.3463 125.299C13.3525 125.299 14.3176 124.909 15.0306 124.215L37.5124 102.209C38.2231 101.511 38.6222 100.567 38.6222 99.583C38.6222 98.598 38.2231 97.6542 37.5124 96.9574L35.3929 94.884Z" fill="#583BD1"/>
<path d="M97.1772 113.362C95.3853 114.932 93.1004 115.858 90.6983 115.988H60.7551C58.3515 115.858 56.0646 114.932 54.2705 113.362L52.156 111.282C51.4406 110.59 50.4752 110.201 49.4693 110.201C48.4633 110.201 47.4979 110.59 46.7825 111.282L24.3036 133.287C23.5939 133.985 23.1955 134.931 23.1955 135.916C23.1955 136.901 23.5939 137.846 24.3036 138.544L32.8613 146.919C33.5758 147.612 34.5407 148 35.5462 148C36.5518 148 37.5167 147.612 38.2312 146.919L54.2733 131.208C56.0669 129.639 58.3532 128.713 60.7558 128.583H90.7076C93.1096 128.713 95.3946 129.638 97.1865 131.208L113.236 146.919C113.95 147.612 114.914 148 115.92 148C116.924 148 117.889 147.612 118.603 146.919L127.16 138.544C127.871 137.846 128.269 136.901 128.269 135.916C128.269 134.931 127.871 133.985 127.16 133.287L104.665 111.281C103.952 110.588 102.987 110.2 101.983 110.2C100.978 110.2 100.013 110.588 99.2995 111.281L97.1772 113.362Z" fill="#583BD1"/>
<path d="M116.598 53.1146C118.206 54.8704 119.154 57.1109 119.285 59.4656V88.7665C119.154 91.1198 118.205 93.3587 116.598 95.1123L114.477 97.1913C113.769 97.8894 113.371 98.8333 113.371 99.8176C113.371 100.801 113.769 101.745 114.477 102.443L136.966 124.445C137.678 125.14 138.644 125.529 139.649 125.529C140.656 125.529 141.62 125.14 142.333 124.445L150.891 116.066C151.601 115.368 152 114.424 152 113.439C152 112.455 151.601 111.51 150.891 110.813L134.849 95.1095C133.24 93.3559 132.291 91.117 132.16 88.7637L132.164 59.4628C132.294 57.1082 133.24 54.8677 134.849 53.1118L150.891 37.4089C151.601 36.7128 152 35.7694 152 34.7858C152 33.8022 151.601 32.8588 150.891 32.1627L142.333 23.7829C141.981 23.438 141.563 23.1643 141.102 22.9776C140.641 22.791 140.148 22.6948 139.649 22.6948C139.151 22.6948 138.658 22.791 138.197 22.9776C137.736 23.1643 137.318 23.438 136.966 23.7829L114.477 45.7838C113.769 46.4818 113.371 47.426 113.371 48.41C113.371 49.3941 113.769 50.3382 114.477 51.0363L116.598 53.1146Z" fill="#583BD1"/>
<path d="M54.8125 34.6375C56.6038 33.0652 58.8901 32.1387 61.2928 32.0113H91.2385C93.6405 32.1409 95.9256 33.0672 97.7182 34.6375L99.8426 36.7159C100.194 37.0607 100.613 37.3343 101.073 37.5209C101.533 37.7075 102.026 37.8037 102.524 37.8037C103.022 37.8037 103.516 37.7075 103.976 37.5209C104.436 37.3343 104.854 37.0607 105.207 36.7159L127.691 14.7101C128.401 14.0115 128.799 13.0664 128.799 12.0814C128.799 11.0964 128.401 10.1514 127.691 9.45273L119.134 1.08762C118.422 0.391195 117.456 0 116.449 0C115.442 0 114.477 0.391195 113.764 1.08762L97.7189 16.7906C95.9263 18.3609 93.6413 19.2871 91.2392 19.4168H61.2928C58.8901 19.2894 56.6038 18.3628 54.8125 16.7906L38.7668 1.08762C38.0523 0.395434 37.0876 0.00715629 36.0822 0.00715629C35.0768 0.00715629 34.1121 0.395434 33.3975 1.08762L24.8399 9.46251C24.1304 10.161 23.7321 11.1059 23.7321 12.0908C23.7321 13.0757 24.1304 14.0206 24.8399 14.7192L47.3195 36.7152C48.0317 37.4116 48.9973 37.8028 50.0041 37.8028C51.0109 37.8028 51.9766 37.4116 52.6888 36.7152L54.8125 34.6375Z" fill="#583BD1"/>
</svg>
