<svg width="224" height="50" viewBox="0 0 224 50" fill="none" xmlns="http://www.w3.org/2000/svg">
<path d="M41.952 0.354997L40.089 11.119H20.631L19.113 19.675H33.396L31.602 29.956H17.319L13.938 49H0.345L8.97 0.354997H41.952ZM57.0317 49.483C53.6737 49.483 50.6837 48.816 48.0617 47.482C45.4857 46.148 43.4847 44.262 42.0587 41.824C40.6327 39.386 39.9197 36.534 39.9197 33.268C39.9197 28.852 40.9547 24.85 43.0247 21.262C45.1407 17.674 48.0387 14.868 51.7187 12.844C55.3987 10.82 59.5157 9.808 64.0697 9.808C67.4277 9.808 70.3947 10.475 72.9707 11.809C75.5927 13.143 77.6167 15.052 79.0427 17.536C80.5147 19.974 81.2507 22.826 81.2507 26.092C81.2507 30.554 80.1927 34.579 78.0767 38.167C75.9607 41.709 73.0627 44.492 69.3827 46.516C65.7027 48.494 61.5857 49.483 57.0317 49.483ZM59.1017 37.822C60.7117 37.822 62.1377 37.316 63.3797 36.304C64.6677 35.292 65.6337 33.981 66.2777 32.371C66.9677 30.761 67.3127 29.105 67.3127 27.403C67.3127 25.471 66.8067 23.999 65.7947 22.987C64.8287 21.975 63.5637 21.469 61.9997 21.469C60.3437 21.469 58.8947 21.975 57.6527 22.987C56.4567 23.999 55.5137 25.31 54.8237 26.92C54.1797 28.53 53.8577 30.209 53.8577 31.957C53.8577 33.889 54.3407 35.361 55.3067 36.373C56.2727 37.339 57.5377 37.822 59.1017 37.822ZM102.071 17.329C103.957 15.075 106.096 13.281 108.488 11.947C110.88 10.613 113.318 9.946 115.802 9.946L113.318 24.367H109.523C106.671 24.367 104.44 24.896 102.83 25.954C101.22 27.012 100.139 28.852 99.5869 31.474L96.4819 49H82.8889L89.7889 10.291H103.313L102.071 17.329ZM171.227 9.946C175.413 9.946 178.633 11.05 180.887 13.258C183.187 15.466 184.337 18.525 184.337 22.435C184.337 23.953 184.222 25.287 183.992 26.437L179.99 49H166.535L170.192 28.231C170.284 27.495 170.33 26.989 170.33 26.713C170.33 25.103 169.847 23.861 168.881 22.987C167.961 22.113 166.65 21.676 164.948 21.676C163.108 21.676 161.521 22.182 160.187 23.194C158.899 24.16 158.025 25.54 157.565 27.334L153.701 49H140.177L143.834 28.231C143.926 27.863 143.972 27.311 143.972 26.575C143.972 25.011 143.489 23.815 142.523 22.987C141.603 22.113 140.315 21.676 138.659 21.676C136.727 21.676 135.094 22.228 133.76 23.332C132.426 24.39 131.529 25.908 131.069 27.886L127.343 49H113.75L120.65 10.291H134.174L133.277 15.328C134.703 13.672 136.451 12.361 138.521 11.395C140.637 10.429 142.96 9.946 145.49 9.946C148.342 9.946 150.757 10.567 152.735 11.809C154.759 13.051 156.208 14.799 157.082 17.053C158.83 14.937 160.946 13.235 163.43 11.947C165.914 10.613 168.513 9.946 171.227 9.946ZM204.305 49.483C201.085 49.483 198.21 49 195.68 48.034C193.15 47.068 191.172 45.711 189.746 43.963C188.32 42.169 187.607 40.122 187.607 37.822C187.607 37.408 187.653 36.787 187.745 35.959H200.786C200.74 37.247 201.131 38.236 201.959 38.926C202.787 39.616 203.937 39.961 205.409 39.961C206.559 39.961 207.502 39.731 208.238 39.271C209.02 38.811 209.411 38.213 209.411 37.477C209.411 36.603 208.928 35.936 207.962 35.476C206.996 34.97 205.386 34.349 203.132 33.613C200.51 32.785 198.348 31.98 196.646 31.198C194.944 30.416 193.449 29.266 192.161 27.748C190.919 26.23 190.298 24.275 190.298 21.883C190.298 19.583 190.965 17.513 192.299 15.673C193.679 13.833 195.611 12.407 198.095 11.395C200.579 10.337 203.454 9.808 206.72 9.808C210.216 9.808 213.229 10.406 215.759 11.602C218.335 12.752 220.244 14.362 221.486 16.432C222.774 18.502 223.349 20.802 223.211 23.332H211.067C211.113 22.09 210.745 21.124 209.963 20.434C209.181 19.698 208.054 19.33 206.582 19.33C205.524 19.33 204.65 19.56 203.96 20.02C203.27 20.48 202.925 21.078 202.925 21.814C202.925 22.688 203.408 23.378 204.374 23.884C205.386 24.39 207.065 25.034 209.411 25.816C211.987 26.644 214.126 27.472 215.828 28.3C217.576 29.082 219.071 30.209 220.313 31.681C221.555 33.107 222.176 34.947 222.176 37.201C222.176 41.019 220.52 44.032 217.208 46.24C213.896 48.402 209.595 49.483 204.305 49.483Z" fill="#583BD1"/>
</svg>
